HIERARCHY
ROOT pelvis
{
  OFFSET 0 100 0
  CHANNELS 6 Xposition Yposition Zposition Zrotation Xrotation Yrotation
  JOINT pelvis_right_femur
  {
    OFFSET -10.78128 -3.44521 -0.5502486
    CHANNELS 3 Zrotation Xrotation Yrotation
    JOINT right_femur_tibia
    {
      OFFSET -0.8047443 -44.0398 -0.1307829
      CHANNELS 3 Zrotation Xrotation Yrotation
      JOINT right_tibia_foot
      {
        OFFSET 3.006224 -47.83518 -5
        CHANNELS 3 Zrotation Xrotation Yrotation
        End Site
        {
          OFFSET 0 -5 15
        }
      }
    }
  }
  JOINT pelvis_left_femur
  {
    OFFSET 10.78128 -3.44521 -0.5502486
    CHANNELS 3 Zrotation Xrotation Yrotation
    JOINT left_femur_tibia
    {
      OFFSET 0.8047443 -44.0398 -0.1307829
      CHANNELS 3 Zrotation Xrotation Yrotation
      JOINT left_tibia_foot
      {
        OFFSET -4.370144 -48.10324 -4.275266
        CHANNELS 3 Zrotation Xrotation Yrotation
        End Site
        {
          OFFSET 0 -5 15
        }
      }
    }
  }
  JOINT pelvis_spine1
  {
    OFFSET 0 6.468898 -3.129235
    CHANNELS 3 Zrotation Xrotation Yrotation
    JOINT spine1
    {
      OFFSET 0 23.15396 4.99043
      CHANNELS 3 Zrotation Xrotation Yrotation
      JOINT spine2
      {
        OFFSET 0 20.79997 -5.064912
        CHANNELS 3 Zrotation Xrotation Yrotation
        JOINT neck
        {
          OFFSET 0 14.38658 9.616178
          CHANNELS 3 Zrotation Xrotation Yrotation
          End Site
          {
            OFFSET 0 20 0
          }
        }
      }
      JOINT right_manubrium
      {
        OFFSET -5.722621 16.35077 3.967754
        CHANNELS 3 Zrotation Xrotation Yrotation
        JOINT right_clavicle
        {
          OFFSET -13.16364 1.694482 -4.693211
          CHANNELS 3 Zrotation Xrotation Yrotation
          JOINT right_humerus
          {
            OFFSET -28.5034 -0.3100689 -2.792744
            CHANNELS 3 Zrotation Xrotation Yrotation
            JOINT right_radius
            {
              OFFSET -25.15693 0.02248979 -1.271978
              CHANNELS 3 Zrotation Xrotation Yrotation
              End Site
              {
                OFFSET -15 0 0
              }
            }
          }
        }
      }
      JOINT left_manubrium
      {
        OFFSET 5.722621 16.35077 3.967754
        CHANNELS 3 Zrotation Xrotation Yrotation
        JOINT left_clavicle
        {
          OFFSET 13.16364 1.694482 -4.693211
          CHANNELS 3 Zrotation Xrotation Yrotation
          JOINT left_humerus
          {
            OFFSET 29.39168 -1.063119 -2.237045
            CHANNELS 3 Zrotation Xrotation Yrotation
            JOINT left_radius
            {
              OFFSET 24.59957 -0.9528479 0.9047498
              CHANNELS 3 Zrotation Xrotation Yrotation
              End Site
              {
                OFFSET 15 -0 -0
              }
            }
          }
        }
      }
    }
  }
}
MOTION
Frames: 19
Frame Time: 0.0416666666667
0 103.5113 0 1.122573 -1.163182 -0.01149872 3.524359 -16.04842 7.40807 -0 40.69614 -0 -9.556199 -11.17994 -1.093999 -8.102982 5.294314 -22.20182 -0 7.120363 -0 13.64706 -16.86255 29.68154 -4.398545 -3.341226 5.067954 2.423532 11.54601 -7.942698 0.4622946 22.20201 7.663394 4.378036 -25.36196 8.604899 7.224097 -21.58434 12.84359 85.24018 37.69389 -18.34495 -0 0 16.12093 -9.47393 7.928271 5.627429 6.109198 -21.57002 -2.361697 -94.81616 23.67202 23.85157 0 0 -14.85084 11.09379 17.87224 0.8380884
0.4701256 104.6676 0.7638054 1.142749 -1.163298 -0.02102085 3.458591 -16.43016 7.14712 -0 40.19392 -0 -9.347339 -10.64612 -1.061642 -8.071324 5.361537 -21.75377 -0 7.325661 -0 13.44946 -16.95373 29.24354 -4.36915 -3.291181 5.071691 2.398441 11.62186 -7.99847 0.4231468 22.11224 7.720222 4.389368 -25.25181 8.562595 7.161163 -21.49174 12.85782 85.37961 37.5512 -18.54248 -0 0 15.92587 -9.965087 8.189987 5.773786 6.179018 -21.75069 -2.46223 -94.32943 23.31531 23.35487 0 0 -15.4456 11.23522 17.58308 0.669986
0.8915504 105.6269 2.063141 1.015986 -0.9009164 0.05372436 3.506274 -18.63856 6.807374 -0 37.43826 -0 -7.915799 -10.21084 -1.781583 -7.612398 7.081057 -20.67724 -0 6.766932 -0 11.3196 -18.1224 27.2955 -4.164853 -3.012275 4.789027 2.43942 11.11447 -8.19228 0.5200104 21.84171 7.72757 4.166106 -24.74275 8.626332 6.809751 -20.7101 12.50957 85.79641 36.90886 -19.30601 -0 0 15.44889 -10.6633 9.028317 5.940994 6.28844 -21.69813 -2.52638 -93.13672 24.1142 21.78137 0 0 -17.38404 9.45691 16.85014 2.774372
1.249896 106.3728 3.753441 0.7777582 -0.3684423 0.1552008 3.71618 -21.07075 6.063731 -0 33.47067 -0 -7.742694 -9.580795 -1.817086 -7.201869 8.879175 -20.09573 -0 5.778687 -0 9.935741 -19.18294 25.83976 -3.883233 -2.851919 4.4268 2.543744 10.67413 -8.348437 0.5540786 21.67016 7.777659 4.169972 -24.77449 8.642597 6.370651 -20.16395 12.22409 86.32443 36.30578 -20.09623 -0 0 14.72898 -10.89427 9.092405 5.99343 6.625471 -21.93339 -2.555683 -92.37625 24.41359 20.52727 0 0 -18.84132 9.039283 16.70547 3.210481
1.53999 106.9135 5.842246 0.5057432 0.209483 0.2833376 3.9511 -23.51486 5.29016 -0 29.34772 -0 -7.715179 -8.845654 -1.785391 -6.793765 10.70603 -19.55482 -0 5.085176 -0 8.476148 -20.16033 24.3005 -3.564621 -2.70523 4.053939 2.655609 10.23355 -8.500121 0.5872415 21.49865 7.828842 4.202925 -24.88187 8.650525 5.92527 -19.61184 11.94448 86.88173 35.69342 -20.91808 -0 0 13.95379 -11.06668 9.088616 6.021558 6.966178 -22.18786 -2.580109 -91.68856 24.69413 19.34187 0 0 -20.22882 8.690737 16.61857 3.572043
1.757782 107.2754 8.328656 0.1922849 0.8443428 0.4278549 4.222438 -25.92092 4.473088 -0 25.09401 -0 -7.931367 -7.955241 -1.626787 -6.393879 12.513 -19.08528 -0 4.789863 -0 6.997583 -21.00277 22.71157 -3.202385 -2.583729 3.675631 2.775918 9.812124 -8.641317 0.6131832 21.33177 7.885658 4.285204 -25.10869 8.644176 5.480394 -19.07764 11.68322 87.47123 35.08936 -21.76565 -0 0 13.11373 -11.15636 8.973025 6.02008 7.311603 -22.47698 -2.5995 -91.12682 24.91728 18.29556 0 0 -21.47838 8.501005 16.62886 3.75586
1.902486 107.5009 11.23328 -0.1458633 1.474491 0.5869448 4.516776 -28.15571 3.710628 -0 21.04232 -0 -8.200215 -6.935346 -1.456977 -6.00273 14.22939 -18.61549 -0 5.159195 -0 5.356861 -21.64642 20.98631 -2.805582 -2.467058 3.313591 2.891064 9.408303 -8.769589 0.6444285 21.15927 7.936604 4.380513 -25.3688 8.629332 5.068207 -18.52455 11.43795 88.06469 34.50414 -22.61627 -0 0 12.25501 -11.22548 8.874819 6.005225 7.600624 -22.73566 -2.619017 -90.65327 25.18158 17.38795 0 0 -22.60332 8.22793 16.63397 4.06814
1.976354 107.6505 14.58268 -0.5012666 2.059816 0.7600548 4.842955 -30.09704 3.07018 -0 17.42848 -0 -8.448196 -5.810381 -1.330529 -5.622239 15.78117 -18.12362 -0 6.401199 -0 3.493558 -22.01533 19.10149 -2.377668 -2.342182 2.981623 2.993755 9.025087 -8.876807 0.6878348 20.98334 7.973289 4.472197 -25.62405 8.607474 4.716054 -17.93997 11.21206 88.63926 33.95904 -23.4422 -0 0 11.40576 -11.2859 8.849587 5.98343 7.790754 -22.92065 -2.639437 -90.2749 25.54942 16.6544 0 0 -23.56349 7.748986 16.58904 4.667852
1.985691 107.8025 18.40571 -0.8642503 2.553022 0.947355 5.213156 -31.59856 2.620532 -0 14.49676 -0 -8.606051 -4.617658 -1.300578 -5.254401 17.06193 -17.58282 -0 8.730487 -0 1.36609 -22.01495 17.05143 -1.922948 -2.191392 2.696473 3.07601 8.670129 -8.951943 0.7486227 20.80909 7.98704 4.543449 -25.83284 8.5773 4.455735 -17.31725 11.01282 89.16497 33.48291 -24.20435 -0 0 10.59778 -11.3532 8.954387 5.966975 7.837573 -22.98932 -2.662165 -89.99878 26.07292 16.13343 0 0 -24.3131 6.954802 16.44078 5.699579
1.942077 108.0523 22.72505 -1.225611 2.912081 1.147021 5.639687 -32.49377 2.406454 -0 12.4353 -0 -8.65527 -3.395508 -1.383441 -4.900559 17.9137 -16.96723 -0 12.34176 -0 -1.005472 -21.53321 14.8724 -1.443975 -1.997151 2.479441 3.130874 8.363759 -8.980793 0.8252822 20.64429 7.972781 4.587384 -25.97048 8.530918 4.319513 -16.67086 10.85625 89.60588 33.11526 -24.85151 -0 0 9.862327 -11.44495 9.225669 5.976125 7.706307 -22.91743 -2.688716 -89.84587 26.75675 15.88183 0 0 -24.7957 5.81435 16.14235 7.214866
1.863719 108.5089 27.54725 -1.573696 3.101062 1.351753 6.123293 -32.58821 2.432725 -0 11.34266 -0 -8.632447 -2.180951 -1.545464 -4.560982 18.10017 -16.23833 -0 17.39977 -0 -3.516772 -20.44643 12.65296 -0.9429127 -1.743977 2.362563 3.151481 8.147538 -8.94732 0.9062831 20.49622 7.931048 4.609341 -26.02943 8.450715 4.33744 -16.04512 10.77111 89.91677 32.90563 -25.31767 -0 0 9.234031 -11.59882 9.682962 6.045127 7.377895 -22.71079 -2.722394 -89.84437 27.52587 15.97111 0 0 -24.95916 4.404916 15.65414 9.134936
1.775967 109.2864 32.84974 -1.889941 3.090522 1.543729 6.642515 -31.6598 2.647807 -0 11.18031 -0 -8.633454 -1.014524 -1.691343 -4.233085 17.29375 -15.33742 -0 24.00409 -0 -5.952458 -18.64251 10.54854 -0.4255993 -1.423018 2.393797 3.130218 8.091267 -8.835631 0.9678127 20.37047 7.868979 4.628532 -26.01845 8.307209 4.530404 -15.52198 10.80143 90.04139 32.90755 -25.52042 -0 0 8.753617 -11.88634 10.32545 6.223957 6.859243 -22.41837 -2.770077 -90.01628 28.19095 16.47114 0 0 -24.7722 2.945458 14.96328 11.20354
1.709066 110.4861 38.56651 -2.14057 2.848543 1.688667 7.148515 -29.47795 2.948685 -0 11.74266 -0 -8.776665 0.02580883 -1.687009 -3.904857 15.1095 -14.18682 -0 32.10591 -0 -7.990743 -16.07407 8.783727 0.08809436 -1.036363 2.636545 3.05703 8.286856 -8.632682 0.9780382 20.27377 7.796107 4.669758 -25.94326 8.062699 4.897706 -15.2135 11.00046 89.91152 33.15832 -25.36042 -0 0 8.472228 -12.41784 11.13156 6.571403 6.192772 -22.13139 -2.842825 -90.34192 28.44767 17.39677 0 0 -24.24789 1.781672 14.10535 12.98941
1.690513 112.1641 44.57679 -2.269847 2.325898 1.732674 7.57153 -25.86532 3.222391 -0 12.66699 -0 -9.109288 0.7476111 -1.439136 -3.54081 11.23736 -12.71925 -0 41.32589 -0 -9.277891 -12.84756 7.628613 0.549499 -0.5992609 3.151819 2.918354 8.809636 -8.329633 0.9138467 20.22424 7.711716 4.740475 -25.76689 7.687606 5.397404 -15.22695 11.40536 89.44937 33.63779 -24.72223 -0 0 8.457782 -13.31233 12.05457 7.13194 5.460637 -21.94894 -2.949213 -90.72041 27.96697 18.62643 0 0 -23.4575 1.277248 13.16349 13.99691
1.732023 114.2871 50.70705 -2.209909 1.455999 1.610725 7.83363 -20.8197 3.416318 -0 13.51066 -0 -9.480281 0.7633131 -1.01766 -3.072305 5.688817 -10.94195 -0 50.6682 -0 -9.600005 -9.317019 7.33544 0.8747443 -0.1372376 3.95314 2.699846 9.635653 -7.919363 0.7896694 20.26398 7.587699 4.799515 -25.37161 7.192407 5.925253 -15.60306 11.98757 88.57758 34.21543 -23.48056 -0 0 8.803781 -14.61343 13.01152 7.899676 4.774208 -21.89762 -3.07557 -90.98767 26.61739 19.8669 0 0 -22.50666 1.588665 12.22338 13.93055
1.819969 116.6937 56.76357 -1.922962 0.2088431 1.274792 7.855476 -14.66942 3.577448 -0 13.88064 -0 -9.506491 -0.4410188 -0.7007191 -2.425608 -0.9683634 -8.997153 -0 58.34649 -0 -9.081605 -6.0891 8.031565 0.970417 0.3209264 4.951928 2.396014 10.56052 -7.395169 0.6756239 20.4501 7.369271 4.751063 -24.58609 6.657707 6.314847 -16.26697 12.60803 87.25241 34.63476 -21.53781 -0 0 9.625218 -16.1966 13.87941 8.799626 4.244313 -21.85312 -3.165141 -91.03072 24.70664 20.76475 0 0 -21.47597 2.435759 11.32704 13.00435
1.925282 119.1026 62.60469 -1.452247 -1.308169 0.7276921 7.568065 -8.122321 3.796929 -0 13.558 -0 -8.779047 -3.157149 -0.7837976 -1.594252 -7.690067 -7.135357 -0 62.23853 -0 -8.198916 -3.829943 9.596229 0.7941508 0.746681 5.960944 2.022226 11.24366 -6.765312 0.6662978 20.80048 7.018036 4.500962 -23.31846 6.219652 6.394083 -17.05451 13.05045 85.53021 34.60703 -18.9242 -0 0 11.00983 -17.80526 14.53628 9.728999 3.94215 -21.58153 -3.135503 -90.88219 22.92939 21.12347 0 0 -20.402 3.150913 10.48911 11.95623
2.032978 121.1977 68.21581 -0.9137646 -2.823394 0.02527398 6.955632 -2.004998 4.100279 -0 12.57767 -0 -7.191516 -7.067002 -1.271184 -0.6745677 -13.50215 -5.579937 -0 61.09833 -0 -7.471741 -2.914774 11.63563 0.3972765 1.106332 6.802146 1.613404 11.42719 -6.074198 0.8057357 21.23782 6.568067 4.043529 -21.69371 5.990729 6.08841 -17.82078 13.15733 83.60407 33.99603 -15.87982 -0 0 12.93956 -19.25324 14.93371 10.63891 3.872194 -20.9274 -2.944585 -90.67126 21.88997 21.04206 0 0 -19.32409 3.138396 9.722468 11.55347
2.161922 122.7477 73.712 -0.4209167 -4.03407 -0.7579813 6.096594 3.196374 4.404128 -0 11.22518 -0 -5.032632 -11.29131 -1.837758 0.2006656 -18.06254 -4.408155 -0 55.43609 -0 -7.104463 -3.208172 13.67105 -0.104002 1.356083 7.42263 1.202633 11.12433 -5.388759 1.047951 21.62128 6.12196 3.485081 -20.02749 5.982286 5.470441 -18.53484 12.9407 81.71873 32.91396 -12.75947 -0 0 15.26882 -20.55713 15.10085 11.55733 3.979908 -19.95086 -2.631985 -90.53787 21.65741 20.86662 0 0 -18.27432 2.329331 9.026515 12.01657
